name Walk4.mot
datacolumns 19
datarows 10
range 2.39700000 2.40600000
endheader

                time	   L_ground_force_vx	   L_ground_force_vy	   L_ground_force_vz	   L_ground_force_px	   L_ground_force_py	   L_ground_force_pz	   R_ground_force_vx	   R_ground_force_vy	   R_ground_force_vz	   R_ground_force_px	   R_ground_force_py	   R_ground_force_pz	   L_ground_torque_x	   L_ground_torque_y	   L_ground_torque_z	   R_ground_torque_x	   R_ground_torque_y	   R_ground_torque_z	
          2.39700000	         15.09429506	         58.72122011	          6.54169282	          0.28453563	          0.00000000	          0.03723381	          0.00000000	          0.00000000	          0.00000000	          0.00000000	          0.00000000	          0.00000000	          0.00000000	         -4.18153868	          0.00000000	          0.00000000	          0.00000000	          0.00000000	
          2.39800000	         13.42443619	         52.21435720	          5.99667211	          0.28558380	          0.00000000	          0.03771776	          0.00000000	          0.00000000	          0.00000000	          0.00000000	          0.00000000	          0.00000000	          0.00000000	         -3.85728912	          0.00000000	          0.00000000	          0.00000000	          0.00000000	
          2.39900000	         11.76042880	         46.43125980	          5.45064519	          0.28713257	          0.00000000	          0.03868209	          0.00000000	          0.00000000	          0.00000000	          0.00000000	          0.00000000	          0.00000000	          0.00000000	         -3.52625695	          0.00000000	          0.00000000	          0.00000000	          0.00000000	
          2.40000000	         10.10636380	         41.31152826	          4.92667406	          0.28949952	          0.00000000	          0.04021195	          0.00000000	          0.00000000	          0.00000000	          0.00000000	          0.00000000	          0.00000000	          0.00000000	         -3.17835331	          0.00000000	          0.00000000	          0.00000000	          0.00000000	
          2.40100000	          8.46313966	         36.69274958	          4.42134476	          0.29238994	          0.00000000	          0.04184484	          0.00000000	          0.00000000	          0.00000000	          0.00000000	          0.00000000	          0.00000000	          0.00000000	         -2.80781406	          0.00000000	          0.00000000	          0.00000000	          0.00000000	
          2.40200000	          6.83490245	         32.35367084	          3.91018182	          0.29515944	          0.00000000	          0.04304814	          0.00000000	          0.00000000	          0.00000000	          0.00000000	          0.00000000	          0.00000000	          0.00000000	         -2.41731778	          0.00000000	          0.00000000	          0.00000000	          0.00000000	
          2.40300000	          5.24517089	         28.05090045	          3.35711674	          0.29727370	          0.00000000	          0.04390180	          0.00000000	          0.00000000	          0.00000000	          0.00000000	          0.00000000	          0.00000000	          0.00000000	         -2.01482506	          0.00000000	          0.00000000	          0.00000000	          0.00000000	
          2.40400000	          3.74952395	         23.51869012	          2.73103524	          0.29842140	          0.00000000	          0.04495921	          0.00000000	          0.00000000	          0.00000000	          0.00000000	          0.00000000	          0.00000000	          0.00000000	         -1.60634174	          0.00000000	          0.00000000	          0.00000000	          0.00000000	
          2.40500000	          2.42632995	         18.53574573	          2.03704747	          0.29867790	          0.00000000	          0.04655950	          0.00000000	          0.00000000	          0.00000000	          0.00000000	          0.00000000	          0.00000000	          0.00000000	         -1.19617331	          0.00000000	          0.00000000	          0.00000000	          0.00000000	
          2.40600000	          1.35252937	         13.16540407	          1.33687414	          0.29849723	          0.00000000	          0.04860494	          0.00000000	          0.00000000	          0.00000000	          0.00000000	          0.00000000	          0.00000000	          0.00000000	         -0.79933887	          0.00000000	          0.00000000	          0.00000000	          0.00000000	
